# xmcd
#
# Track frame offsets:
# 150
# 14056
# 31944
# 45255
# 58997
# 77350
# 95442
# 113845
# 128711
# 143783
# 163153
# 177977
# 193892
# 209965
# 225913
# 239271
# 254344
# 266481
# 282536
# 299167
#
# Disc length: 4241 seconds
#
#
# Revision: 0
# Processed by: cddbd v1.5.2PL0 Copyright (c) Steve Scherf et al.
# Submitted via: FreeRIP 2.93 
#
DISCID=2f108f14
DTITLE=Ivonir Machado - As 20 Mais
DYEAR=1900
DGENRE=Gauchesco
TTITLE0=Alo Mulherada
TTITLE1=Barquinho
TTITLE2=Negaciando a Bendita
TTITLE3=Novos Garotos na Vanera
TTITLE4=Carona na 101
TTITLE5=Garoto Brasileiro
TTITLE6=Eta Eta Eta (Pega na Sanfona)
TTITLE7=Chevetao
TTITLE8=Bicando as Loirinhas
TTITLE9=Ivonir e o DJ
TTITLE10=A danca do Robozao
TTITLE11=Cinquentao
TTITLE12=Picanha
TTITLE13=O Gauchao
TTITLE14=So se for agora
TTITLE15=Tira a tua mao dai
TTITLE16=Nas madrugadas do Rodeio
TTITLE17=Pau de Fogo
TTITLE18=Nessa onda que eu vou
TTITLE19=MMMA
EXTD=
EXTT0=
EXTT1=
EXTT2=
EXTT3=
EXTT4=
EXTT5=
EXTT6=
EXTT7=
EXTT8=
EXTT9=
EXTT10=
EXTT11=
EXTT12=
EXTT13=
EXTT14=
EXTT15=
EXTT16=
EXTT17=
EXTT18=
EXTT19=
PLAYORDER=
